<mxfile host="Electron" modified="2024-06-17T00:14:53.404Z" agent="Mozilla/5.0 (X11; Linux x86_64) AppleWebKit/537.36 (KHTML, like Gecko) draw.io/24.5.3 Chrome/124.0.6367.207 Electron/30.0.6 Safari/537.36" etag="rdLGaem8f3Jx-buNN-xU" version="24.5.3" type="device" pages="2">
  <diagram name="conceptual" id="nUND-kms9oTr3C8BLj7v">
    <mxGraphModel dx="993" dy="1088" grid="1" gridSize="10" guides="1" tooltips="1" connect="1" arrows="1" fold="1" page="1" pageScale="1" pageWidth="827" pageHeight="583" math="0" shadow="0">
      <root>
        <mxCell id="0" />
        <mxCell id="1" parent="0" />
        <mxCell id="VhBeuL6Dx7hb8BbJ6Nju-17" value="" style="endArrow=none;html=1;rounded=0;" parent="1" edge="1">
          <mxGeometry width="50" height="50" relative="1" as="geometry">
            <mxPoint x="395.00000000000006" y="521" as="sourcePoint" />
            <mxPoint x="395.00000000000006" y="81" as="targetPoint" />
          </mxGeometry>
        </mxCell>
        <mxCell id="VhBeuL6Dx7hb8BbJ6Nju-7" value="Static&amp;nbsp;&lt;div&gt;Database&lt;/div&gt;" style="verticalLabelPosition=middle;aspect=fixed;html=1;shape=mxgraph.salesforce.data;labelBackgroundColor=default;labelPosition=left;align=right;verticalAlign=middle;spacingLeft=0;spacing=10;" parent="1" vertex="1">
          <mxGeometry x="155" y="90" width="48.6" height="60" as="geometry" />
        </mxCell>
        <mxCell id="VhBeuL6Dx7hb8BbJ6Nju-50" style="edgeStyle=orthogonalEdgeStyle;rounded=0;orthogonalLoop=1;jettySize=auto;html=1;" parent="1" source="VhBeuL6Dx7hb8BbJ6Nju-8" target="VhBeuL6Dx7hb8BbJ6Nju-11" edge="1">
          <mxGeometry relative="1" as="geometry">
            <Array as="points">
              <mxPoint x="215" y="400" />
              <mxPoint x="215" y="400" />
            </Array>
          </mxGeometry>
        </mxCell>
        <mxCell id="VhBeuL6Dx7hb8BbJ6Nju-8" value="User" style="verticalLabelPosition=middle;aspect=fixed;html=1;shape=mxgraph.salesforce.web;labelBackgroundColor=default;labelPosition=left;align=right;verticalAlign=middle;spacingLeft=0;spacing=10;" parent="1" vertex="1">
          <mxGeometry x="204.00000000000003" y="480" width="60" height="47.400000000000006" as="geometry" />
        </mxCell>
        <mxCell id="VhBeuL6Dx7hb8BbJ6Nju-46" style="edgeStyle=orthogonalEdgeStyle;rounded=0;orthogonalLoop=1;jettySize=auto;html=1;startArrow=classic;startFill=1;" parent="1" source="VhBeuL6Dx7hb8BbJ6Nju-11" target="VhBeuL6Dx7hb8BbJ6Nju-44" edge="1">
          <mxGeometry relative="1" as="geometry">
            <Array as="points">
              <mxPoint x="245" y="220" />
              <mxPoint x="285" y="220" />
            </Array>
          </mxGeometry>
        </mxCell>
        <mxCell id="VhBeuL6Dx7hb8BbJ6Nju-47" style="edgeStyle=orthogonalEdgeStyle;rounded=0;orthogonalLoop=1;jettySize=auto;html=1;startArrow=classic;startFill=1;" parent="1" source="VhBeuL6Dx7hb8BbJ6Nju-11" target="VhBeuL6Dx7hb8BbJ6Nju-7" edge="1">
          <mxGeometry relative="1" as="geometry">
            <Array as="points">
              <mxPoint x="225" y="220" />
              <mxPoint x="179" y="220" />
            </Array>
          </mxGeometry>
        </mxCell>
        <mxCell id="VhBeuL6Dx7hb8BbJ6Nju-49" style="edgeStyle=orthogonalEdgeStyle;rounded=0;orthogonalLoop=1;jettySize=auto;html=1;" parent="1" source="VhBeuL6Dx7hb8BbJ6Nju-11" target="VhBeuL6Dx7hb8BbJ6Nju-8" edge="1">
          <mxGeometry relative="1" as="geometry">
            <Array as="points">
              <mxPoint x="245" y="403" />
              <mxPoint x="245" y="403" />
            </Array>
          </mxGeometry>
        </mxCell>
        <mxCell id="VhBeuL6Dx7hb8BbJ6Nju-11" value="Application" style="image;aspect=fixed;html=1;points=[];align=right;fontSize=12;image=img/lib/azure2/general/Code.svg;labelBackgroundColor=default;labelPosition=left;verticalLabelPosition=middle;verticalAlign=middle;spacingLeft=0;spacing=10;" parent="1" vertex="1">
          <mxGeometry x="205.39000000000001" y="280" width="56.62" height="46" as="geometry" />
        </mxCell>
        <mxCell id="VhBeuL6Dx7hb8BbJ6Nju-27" value="User&amp;nbsp;&lt;div&gt;Data&lt;/div&gt;" style="html=1;verticalLabelPosition=middle;align=right;labelBackgroundColor=#ffffff;verticalAlign=middle;strokeWidth=2;strokeColor=#0080F0;shadow=0;dashed=0;shape=mxgraph.ios7.icons.data;labelPosition=left;spacing=10;" parent="1" vertex="1">
          <mxGeometry x="180" y="390" width="24" height="29.099999999999998" as="geometry" />
        </mxCell>
        <mxCell id="VhBeuL6Dx7hb8BbJ6Nju-30" value="Prediction" style="html=1;verticalLabelPosition=middle;align=left;labelBackgroundColor=#ffffff;verticalAlign=middle;strokeWidth=2;strokeColor=#2d8000;shadow=0;dashed=0;shape=mxgraph.ios7.icons.data;labelPosition=right;spacing=10;" parent="1" vertex="1">
          <mxGeometry x="255" y="390" width="24" height="29.099999999999998" as="geometry" />
        </mxCell>
        <mxCell id="VhBeuL6Dx7hb8BbJ6Nju-31" value="Conceptual View" style="rounded=0;whiteSpace=wrap;html=1;fillColor=#f5f5f5;fontColor=#333333;strokeColor=#666666;" parent="1" vertex="1">
          <mxGeometry x="85" y="40" width="290" height="20" as="geometry" />
        </mxCell>
        <mxCell id="VhBeuL6Dx7hb8BbJ6Nju-32" value="Possible Services" style="rounded=0;whiteSpace=wrap;html=1;fillColor=#f5f5f5;fontColor=#333333;strokeColor=#666666;" parent="1" vertex="1">
          <mxGeometry x="415" y="40" width="300" height="20" as="geometry" />
        </mxCell>
        <mxCell id="VhBeuL6Dx7hb8BbJ6Nju-33" value="RDS" style="sketch=0;points=[[0,0,0],[0.25,0,0],[0.5,0,0],[0.75,0,0],[1,0,0],[0,1,0],[0.25,1,0],[0.5,1,0],[0.75,1,0],[1,1,0],[0,0.25,0],[0,0.5,0],[0,0.75,0],[1,0.25,0],[1,0.5,0],[1,0.75,0]];outlineConnect=0;fontColor=#232F3E;fillColor=#C925D1;strokeColor=#ffffff;dashed=0;verticalLabelPosition=bottom;verticalAlign=top;align=center;html=1;fontSize=12;fontStyle=0;aspect=fixed;shape=mxgraph.aws4.resourceIcon;resIcon=mxgraph.aws4.rds;" parent="1" vertex="1">
          <mxGeometry x="435" y="81" width="39" height="39" as="geometry" />
        </mxCell>
        <mxCell id="VhBeuL6Dx7hb8BbJ6Nju-34" value="S3" style="sketch=0;points=[[0,0,0],[0.25,0,0],[0.5,0,0],[0.75,0,0],[1,0,0],[0,1,0],[0.25,1,0],[0.5,1,0],[0.75,1,0],[1,1,0],[0,0.25,0],[0,0.5,0],[0,0.75,0],[1,0.25,0],[1,0.5,0],[1,0.75,0]];outlineConnect=0;fontColor=#232F3E;fillColor=#7AA116;strokeColor=#ffffff;dashed=0;verticalLabelPosition=bottom;verticalAlign=top;align=center;html=1;fontSize=12;fontStyle=0;aspect=fixed;shape=mxgraph.aws4.resourceIcon;resIcon=mxgraph.aws4.s3;" parent="1" vertex="1">
          <mxGeometry x="675" y="80" width="40" height="40" as="geometry" />
        </mxCell>
        <mxCell id="VhBeuL6Dx7hb8BbJ6Nju-35" value="Bedrock&lt;div&gt;(vector)&lt;/div&gt;" style="sketch=0;points=[[0,0,0],[0.25,0,0],[0.5,0,0],[0.75,0,0],[1,0,0],[0,1,0],[0.25,1,0],[0.5,1,0],[0.75,1,0],[1,1,0],[0,0.25,0],[0,0.5,0],[0,0.75,0],[1,0.25,0],[1,0.5,0],[1,0.75,0]];outlineConnect=0;fontColor=#232F3E;fillColor=#01A88D;strokeColor=#ffffff;dashed=0;verticalLabelPosition=bottom;verticalAlign=top;align=center;html=1;fontSize=12;fontStyle=0;aspect=fixed;shape=mxgraph.aws4.resourceIcon;resIcon=mxgraph.aws4.bedrock;" parent="1" vertex="1">
          <mxGeometry x="595" y="80" width="40" height="40" as="geometry" />
        </mxCell>
        <mxCell id="VhBeuL6Dx7hb8BbJ6Nju-36" value="DynamoDB" style="sketch=0;points=[[0,0,0],[0.25,0,0],[0.5,0,0],[0.75,0,0],[1,0,0],[0,1,0],[0.25,1,0],[0.5,1,0],[0.75,1,0],[1,1,0],[0,0.25,0],[0,0.5,0],[0,0.75,0],[1,0.25,0],[1,0.5,0],[1,0.75,0]];outlineConnect=0;fontColor=#232F3E;fillColor=#C925D1;strokeColor=#ffffff;dashed=0;verticalLabelPosition=bottom;verticalAlign=top;align=center;html=1;fontSize=12;fontStyle=0;aspect=fixed;shape=mxgraph.aws4.resourceIcon;resIcon=mxgraph.aws4.dynamodb;" parent="1" vertex="1">
          <mxGeometry x="515" y="80" width="40" height="40" as="geometry" />
        </mxCell>
        <mxCell id="VhBeuL6Dx7hb8BbJ6Nju-37" value="ECS" style="sketch=0;points=[[0,0,0],[0.25,0,0],[0.5,0,0],[0.75,0,0],[1,0,0],[0,1,0],[0.25,1,0],[0.5,1,0],[0.75,1,0],[1,1,0],[0,0.25,0],[0,0.5,0],[0,0.75,0],[1,0.25,0],[1,0.5,0],[1,0.75,0]];outlineConnect=0;fontColor=#232F3E;fillColor=#ED7100;strokeColor=#ffffff;dashed=0;verticalLabelPosition=bottom;verticalAlign=top;align=center;html=1;fontSize=12;fontStyle=0;aspect=fixed;shape=mxgraph.aws4.resourceIcon;resIcon=mxgraph.aws4.ecs;" parent="1" vertex="1">
          <mxGeometry x="435" y="280" width="40" height="40" as="geometry" />
        </mxCell>
        <mxCell id="VhBeuL6Dx7hb8BbJ6Nju-38" value="EKS" style="sketch=0;points=[[0,0,0],[0.25,0,0],[0.5,0,0],[0.75,0,0],[1,0,0],[0,1,0],[0.25,1,0],[0.5,1,0],[0.75,1,0],[1,1,0],[0,0.25,0],[0,0.5,0],[0,0.75,0],[1,0.25,0],[1,0.5,0],[1,0.75,0]];outlineConnect=0;fontColor=#232F3E;fillColor=#ED7100;strokeColor=#ffffff;dashed=0;verticalLabelPosition=bottom;verticalAlign=top;align=center;html=1;fontSize=12;fontStyle=0;aspect=fixed;shape=mxgraph.aws4.resourceIcon;resIcon=mxgraph.aws4.eks;" parent="1" vertex="1">
          <mxGeometry x="515" y="280" width="40" height="40" as="geometry" />
        </mxCell>
        <mxCell id="VhBeuL6Dx7hb8BbJ6Nju-39" value="Container&lt;div&gt;Lambda&lt;/div&gt;" style="sketch=0;points=[[0,0,0],[0.25,0,0],[0.5,0,0],[0.75,0,0],[1,0,0],[0,1,0],[0.25,1,0],[0.5,1,0],[0.75,1,0],[1,1,0],[0,0.25,0],[0,0.5,0],[0,0.75,0],[1,0.25,0],[1,0.5,0],[1,0.75,0]];outlineConnect=0;fontColor=#232F3E;fillColor=#ED7100;strokeColor=#ffffff;dashed=0;verticalLabelPosition=bottom;verticalAlign=top;align=center;html=1;fontSize=12;fontStyle=0;aspect=fixed;shape=mxgraph.aws4.resourceIcon;resIcon=mxgraph.aws4.lambda;" parent="1" vertex="1">
          <mxGeometry x="595" y="280" width="40" height="40" as="geometry" />
        </mxCell>
        <mxCell id="VhBeuL6Dx7hb8BbJ6Nju-40" value="EC2" style="sketch=0;points=[[0,0,0],[0.25,0,0],[0.5,0,0],[0.75,0,0],[1,0,0],[0,1,0],[0.25,1,0],[0.5,1,0],[0.75,1,0],[1,1,0],[0,0.25,0],[0,0.5,0],[0,0.75,0],[1,0.25,0],[1,0.5,0],[1,0.75,0]];outlineConnect=0;fontColor=#232F3E;fillColor=#ED7100;strokeColor=#ffffff;dashed=0;verticalLabelPosition=bottom;verticalAlign=top;align=center;html=1;fontSize=12;fontStyle=0;aspect=fixed;shape=mxgraph.aws4.resourceIcon;resIcon=mxgraph.aws4.ec2;" parent="1" vertex="1">
          <mxGeometry x="675" y="280" width="40" height="40" as="geometry" />
        </mxCell>
        <mxCell id="VhBeuL6Dx7hb8BbJ6Nju-41" value="API Gateway" style="sketch=0;points=[[0,0,0],[0.25,0,0],[0.5,0,0],[0.75,0,0],[1,0,0],[0,1,0],[0.25,1,0],[0.5,1,0],[0.75,1,0],[1,1,0],[0,0.25,0],[0,0.5,0],[0,0.75,0],[1,0.25,0],[1,0.5,0],[1,0.75,0]];outlineConnect=0;fontColor=#232F3E;fillColor=#8C4FFF;strokeColor=#ffffff;dashed=0;verticalLabelPosition=bottom;verticalAlign=top;align=center;html=1;fontSize=12;fontStyle=0;aspect=fixed;shape=mxgraph.aws4.resourceIcon;resIcon=mxgraph.aws4.api_gateway;" parent="1" vertex="1">
          <mxGeometry x="515" y="480" width="40" height="40" as="geometry" />
        </mxCell>
        <mxCell id="VhBeuL6Dx7hb8BbJ6Nju-42" value="Kafka" style="sketch=0;points=[[0,0,0],[0.25,0,0],[0.5,0,0],[0.75,0,0],[1,0,0],[0,1,0],[0.25,1,0],[0.5,1,0],[0.75,1,0],[1,1,0],[0,0.25,0],[0,0.5,0],[0,0.75,0],[1,0.25,0],[1,0.5,0],[1,0.75,0]];outlineConnect=0;fontColor=#232F3E;fillColor=#8C4FFF;strokeColor=#ffffff;dashed=0;verticalLabelPosition=bottom;verticalAlign=top;align=center;html=1;fontSize=12;fontStyle=0;aspect=fixed;shape=mxgraph.aws4.resourceIcon;resIcon=mxgraph.aws4.managed_streaming_for_kafka;" parent="1" vertex="1">
          <mxGeometry x="595" y="480" width="40" height="40" as="geometry" />
        </mxCell>
        <mxCell id="VhBeuL6Dx7hb8BbJ6Nju-44" value="Model&amp;nbsp;&lt;div&gt;Registry&lt;/div&gt;" style="sketch=0;outlineConnect=0;fontColor=#232F3E;gradientColor=none;fillColor=#01A88D;strokeColor=none;dashed=0;verticalLabelPosition=middle;verticalAlign=middle;align=left;html=1;fontSize=12;fontStyle=0;aspect=fixed;pointerEvents=1;shape=mxgraph.aws4.sagemaker_model;labelPosition=right;spacing=10;" parent="1" vertex="1">
          <mxGeometry x="255.59000000000003" y="91" width="59" height="59" as="geometry" />
        </mxCell>
      </root>
    </mxGraphModel>
  </diagram>
  <diagram id="IIwhL1KiZcunf1OY0Tpr" name="architecture">
    <mxGraphModel dx="1222" dy="1338" grid="1" gridSize="10" guides="1" tooltips="1" connect="1" arrows="1" fold="1" page="1" pageScale="1" pageWidth="1169" pageHeight="827" math="0" shadow="0">
      <root>
        <mxCell id="0" />
        <mxCell id="1" parent="0" />
        <mxCell id="6z5fxRmnPsgeu4vAPnSq-42" value="" style="rounded=1;whiteSpace=wrap;html=1;fillColor=#EFF4FC;strokeColor=none;" vertex="1" parent="1">
          <mxGeometry x="782.5" y="390.1" width="310" height="89" as="geometry" />
        </mxCell>
        <mxCell id="6z5fxRmnPsgeu4vAPnSq-43" value="" style="rounded=1;whiteSpace=wrap;html=1;fillColor=#EFF4FC;strokeColor=none;" vertex="1" parent="1">
          <mxGeometry x="760" y="203.5" width="360" height="80" as="geometry" />
        </mxCell>
        <mxCell id="6z5fxRmnPsgeu4vAPnSq-44" value="" style="rounded=1;whiteSpace=wrap;html=1;fillColor=#EFF4FC;strokeColor=none;" vertex="1" parent="1">
          <mxGeometry x="80" y="203.5" width="350" height="80" as="geometry" />
        </mxCell>
        <mxCell id="6z5fxRmnPsgeu4vAPnSq-41" value="" style="rounded=1;whiteSpace=wrap;html=1;fillColor=#EFF4FC;strokeColor=none;" vertex="1" parent="1">
          <mxGeometry x="650" y="561" width="310" height="89" as="geometry" />
        </mxCell>
        <mxCell id="6z5fxRmnPsgeu4vAPnSq-40" value="" style="rounded=1;whiteSpace=wrap;html=1;fillColor=#EFF4FC;strokeColor=none;" vertex="1" parent="1">
          <mxGeometry x="240" y="561" width="300" height="89" as="geometry" />
        </mxCell>
        <mxCell id="6z5fxRmnPsgeu4vAPnSq-17" value="" style="outlineConnect=0;gradientColor=none;html=1;whiteSpace=wrap;fontSize=12;fontStyle=0;strokeColor=#879196;fillColor=none;verticalAlign=top;align=center;fontColor=#879196;dashed=1;spacingTop=3;rounded=0;glass=0;shadow=0;" vertex="1" parent="1">
          <mxGeometry x="420" y="360" width="320" height="170" as="geometry" />
        </mxCell>
        <mxCell id="6z5fxRmnPsgeu4vAPnSq-16" value="ECS" style="sketch=0;points=[[0,0,0],[0.25,0,0],[0.5,0,0],[0.75,0,0],[1,0,0],[0,1,0],[0.25,1,0],[0.5,1,0],[0.75,1,0],[1,1,0],[0,0.25,0],[0,0.5,0],[0,0.75,0],[1,0.25,0],[1,0.5,0],[1,0.75,0]];outlineConnect=0;fontColor=#232F3E;fillColor=#ED7100;strokeColor=#ffffff;dashed=0;verticalLabelPosition=middle;verticalAlign=middle;align=right;html=1;fontSize=12;fontStyle=0;aspect=fixed;shape=mxgraph.aws4.resourceIcon;resIcon=mxgraph.aws4.ecs;labelBackgroundColor=default;labelPosition=left;spacing=10;" vertex="1" parent="1">
          <mxGeometry x="380" y="324" width="78" height="78" as="geometry" />
        </mxCell>
        <mxCell id="6z5fxRmnPsgeu4vAPnSq-20" style="edgeStyle=orthogonalEdgeStyle;rounded=0;orthogonalLoop=1;jettySize=auto;html=1;" edge="1" parent="1" source="6z5fxRmnPsgeu4vAPnSq-15" target="6z5fxRmnPsgeu4vAPnSq-14">
          <mxGeometry relative="1" as="geometry" />
        </mxCell>
        <mxCell id="6z5fxRmnPsgeu4vAPnSq-15" value="Task&amp;nbsp;&lt;div&gt;Definition&lt;/div&gt;" style="sketch=0;outlineConnect=0;fontColor=#232F3E;gradientColor=none;fillColor=#ED7100;strokeColor=none;dashed=0;verticalLabelPosition=bottom;verticalAlign=top;align=center;html=1;fontSize=12;fontStyle=0;aspect=fixed;pointerEvents=1;shape=mxgraph.aws4.ecs_task;" vertex="1" parent="1">
          <mxGeometry x="480" y="416" width="37" height="48" as="geometry" />
        </mxCell>
        <mxCell id="6z5fxRmnPsgeu4vAPnSq-19" style="edgeStyle=orthogonalEdgeStyle;rounded=0;orthogonalLoop=1;jettySize=auto;html=1;entryX=0.5;entryY=1;entryDx=0;entryDy=0;entryPerimeter=0;" edge="1" parent="1" source="6z5fxRmnPsgeu4vAPnSq-14" target="6z5fxRmnPsgeu4vAPnSq-13">
          <mxGeometry relative="1" as="geometry">
            <Array as="points">
              <mxPoint x="610" y="300" />
              <mxPoint x="739" y="300" />
            </Array>
          </mxGeometry>
        </mxCell>
        <mxCell id="6z5fxRmnPsgeu4vAPnSq-21" style="edgeStyle=orthogonalEdgeStyle;rounded=0;orthogonalLoop=1;jettySize=auto;html=1;entryX=0.5;entryY=1;entryDx=0;entryDy=0;entryPerimeter=0;" edge="1" parent="1" source="6z5fxRmnPsgeu4vAPnSq-14" target="6z5fxRmnPsgeu4vAPnSq-12">
          <mxGeometry relative="1" as="geometry">
            <Array as="points">
              <mxPoint x="580" y="300" />
              <mxPoint x="459" y="300" />
            </Array>
          </mxGeometry>
        </mxCell>
        <mxCell id="6z5fxRmnPsgeu4vAPnSq-12" value="RDS&lt;div&gt;Postgres&lt;/div&gt;" style="sketch=0;points=[[0,0,0],[0.25,0,0],[0.5,0,0],[0.75,0,0],[1,0,0],[0,1,0],[0.25,1,0],[0.5,1,0],[0.75,1,0],[1,1,0],[0,0.25,0],[0,0.5,0],[0,0.75,0],[1,0.25,0],[1,0.5,0],[1,0.75,0]];outlineConnect=0;fontColor=#232F3E;fillColor=#C925D1;strokeColor=#ffffff;dashed=0;verticalLabelPosition=middle;verticalAlign=middle;align=right;html=1;fontSize=12;fontStyle=0;aspect=fixed;shape=mxgraph.aws4.resourceIcon;resIcon=mxgraph.aws4.rds;labelBackgroundColor=default;spacing=10;labelPosition=left;" vertex="1" parent="1">
          <mxGeometry x="420" y="100" width="78" height="78" as="geometry" />
        </mxCell>
        <mxCell id="6z5fxRmnPsgeu4vAPnSq-13" value="S3&lt;div&gt;Model Registry&lt;/div&gt;" style="sketch=0;points=[[0,0,0],[0.25,0,0],[0.5,0,0],[0.75,0,0],[1,0,0],[0,1,0],[0.25,1,0],[0.5,1,0],[0.75,1,0],[1,1,0],[0,0.25,0],[0,0.5,0],[0,0.75,0],[1,0.25,0],[1,0.5,0],[1,0.75,0]];outlineConnect=0;fontColor=#232F3E;fillColor=#7AA116;strokeColor=#ffffff;dashed=0;verticalLabelPosition=middle;verticalAlign=middle;align=right;html=1;fontSize=12;fontStyle=0;aspect=fixed;shape=mxgraph.aws4.resourceIcon;resIcon=mxgraph.aws4.s3;labelBackgroundColor=default;spacing=10;labelPosition=left;" vertex="1" parent="1">
          <mxGeometry x="700" y="100" width="78" height="78" as="geometry" />
        </mxCell>
        <mxCell id="6z5fxRmnPsgeu4vAPnSq-23" value="&lt;h3 style=&quot;margin-top: 0px;&quot;&gt;Inicialização do container&lt;/h3&gt;&lt;p style=&quot;text-align: center;&quot;&gt;&lt;font color=&quot;#333333&quot;&gt;Container programado para ser ativado quando houver um fluxo de requisições.&lt;/font&gt;&lt;/p&gt;" style="text;html=1;whiteSpace=wrap;overflow=hidden;rounded=0;" vertex="1" parent="1">
          <mxGeometry x="820" y="394" width="235" height="92" as="geometry" />
        </mxCell>
        <mxCell id="6z5fxRmnPsgeu4vAPnSq-24" value="2" style="ellipse;whiteSpace=wrap;html=1;aspect=fixed;fillColor=#dae8fc;strokeColor=#6c8ebf;" vertex="1" parent="1">
          <mxGeometry x="749" y="229" width="29" height="29" as="geometry" />
        </mxCell>
        <mxCell id="6z5fxRmnPsgeu4vAPnSq-27" value="4" style="ellipse;whiteSpace=wrap;html=1;aspect=fixed;fillColor=#dae8fc;strokeColor=#6c8ebf;" vertex="1" parent="1">
          <mxGeometry x="418" y="229" width="29" height="29" as="geometry" />
        </mxCell>
        <mxCell id="6z5fxRmnPsgeu4vAPnSq-28" value="1" style="ellipse;whiteSpace=wrap;html=1;aspect=fixed;fillColor=#dae8fc;strokeColor=#6c8ebf;" vertex="1" parent="1">
          <mxGeometry x="770" y="421" width="29" height="29" as="geometry" />
        </mxCell>
        <mxCell id="6z5fxRmnPsgeu4vAPnSq-29" value="&lt;h3 style=&quot;margin-top: 0px;&quot;&gt;Resgate do artefato&lt;/h3&gt;&lt;p&gt;&lt;span style=&quot;color: rgb(51, 51, 51); text-align: center;&quot;&gt;Na fase de Inicialização, r&lt;/span&gt;&lt;span style=&quot;color: rgb(51, 51, 51); text-align: center; background-color: initial;&quot;&gt;esgata o modelo mais atual ou especificado pela variável de ambiente do container.&lt;/span&gt;&lt;/p&gt;" style="text;html=1;whiteSpace=wrap;overflow=hidden;rounded=0;" vertex="1" parent="1">
          <mxGeometry x="797.5" y="208.5" width="302.5" height="70" as="geometry" />
        </mxCell>
        <mxCell id="6z5fxRmnPsgeu4vAPnSq-31" style="edgeStyle=orthogonalEdgeStyle;rounded=0;orthogonalLoop=1;jettySize=auto;html=1;" edge="1" parent="1" source="6z5fxRmnPsgeu4vAPnSq-30" target="6z5fxRmnPsgeu4vAPnSq-14">
          <mxGeometry relative="1" as="geometry">
            <Array as="points">
              <mxPoint x="580" y="560" />
              <mxPoint x="580" y="560" />
            </Array>
          </mxGeometry>
        </mxCell>
        <mxCell id="6z5fxRmnPsgeu4vAPnSq-30" value="API&amp;nbsp;&lt;div&gt;Gateway&lt;/div&gt;" style="sketch=0;points=[[0,0,0],[0.25,0,0],[0.5,0,0],[0.75,0,0],[1,0,0],[0,1,0],[0.25,1,0],[0.5,1,0],[0.75,1,0],[1,1,0],[0,0.25,0],[0,0.5,0],[0,0.75,0],[1,0.25,0],[1,0.5,0],[1,0.75,0]];outlineConnect=0;fontColor=#232F3E;fillColor=#8C4FFF;strokeColor=#ffffff;dashed=0;verticalLabelPosition=bottom;verticalAlign=top;align=center;html=1;fontSize=12;fontStyle=0;aspect=fixed;shape=mxgraph.aws4.resourceIcon;resIcon=mxgraph.aws4.api_gateway;" vertex="1" parent="1">
          <mxGeometry x="555" y="670" width="78" height="78" as="geometry" />
        </mxCell>
        <mxCell id="6z5fxRmnPsgeu4vAPnSq-32" value="&lt;h3 style=&quot;margin-top: 0px;&quot;&gt;Predição do modelo&lt;/h3&gt;&lt;p style=&quot;text-align: justify;&quot;&gt;&lt;font color=&quot;#333333&quot;&gt;Com as informações enviadas pelo cliente e obtidas pelo banco de dados retorna-se a predição do modelo para o cliente por meio do API Gateway.&lt;/font&gt;&lt;/p&gt;" style="text;html=1;whiteSpace=wrap;overflow=hidden;rounded=0;" vertex="1" parent="1">
          <mxGeometry x="670" y="559.5" width="281" height="92" as="geometry" />
        </mxCell>
        <mxCell id="6z5fxRmnPsgeu4vAPnSq-33" value="3" style="ellipse;whiteSpace=wrap;html=1;aspect=fixed;fillColor=#dae8fc;strokeColor=#6c8ebf;" vertex="1" parent="1">
          <mxGeometry x="526" y="591" width="29" height="29" as="geometry" />
        </mxCell>
        <mxCell id="6z5fxRmnPsgeu4vAPnSq-35" style="edgeStyle=orthogonalEdgeStyle;rounded=0;orthogonalLoop=1;jettySize=auto;html=1;" edge="1" parent="1" source="6z5fxRmnPsgeu4vAPnSq-14" target="6z5fxRmnPsgeu4vAPnSq-30">
          <mxGeometry relative="1" as="geometry">
            <Array as="points">
              <mxPoint x="610" y="560" />
              <mxPoint x="610" y="560" />
            </Array>
          </mxGeometry>
        </mxCell>
        <mxCell id="6z5fxRmnPsgeu4vAPnSq-14" value="App" style="sketch=0;outlineConnect=0;fontColor=#232F3E;gradientColor=none;fillColor=#ED7100;strokeColor=none;dashed=0;verticalLabelPosition=middle;verticalAlign=middle;align=left;html=1;fontSize=12;fontStyle=0;aspect=fixed;pointerEvents=1;shape=mxgraph.aws4.container_1;labelBackgroundColor=default;spacing=10;labelPosition=right;" vertex="1" parent="1">
          <mxGeometry x="570" y="424.5" width="48" height="31" as="geometry" />
        </mxCell>
        <mxCell id="6z5fxRmnPsgeu4vAPnSq-36" value="5" style="ellipse;whiteSpace=wrap;html=1;aspect=fixed;fillColor=#dae8fc;strokeColor=#6c8ebf;" vertex="1" parent="1">
          <mxGeometry x="631" y="591" width="29" height="29" as="geometry" />
        </mxCell>
        <mxCell id="6z5fxRmnPsgeu4vAPnSq-37" value="&lt;h3 style=&quot;text-align: justify; margin-top: 0px;&quot;&gt;Requisição do cliente&lt;/h3&gt;&lt;p style=&quot;text-align: justify;&quot;&gt;&lt;font color=&quot;#333333&quot;&gt;Cliente requisita um serviço envolvendo ML incluindo os campos específicos do contrato para a predição.&lt;/font&gt;&lt;/p&gt;" style="text;html=1;whiteSpace=wrap;overflow=hidden;rounded=0;" vertex="1" parent="1">
          <mxGeometry x="250" y="559.5" width="260" height="92" as="geometry" />
        </mxCell>
        <mxCell id="6z5fxRmnPsgeu4vAPnSq-39" value="&lt;h3 style=&quot;margin-top: 0px;&quot;&gt;Resgate de informações do banco de dados&lt;/h3&gt;&lt;p&gt;&lt;span style=&quot;color: rgb(51, 51, 51); text-align: center;&quot;&gt;Na fase de Inicialização, r&lt;/span&gt;&lt;span style=&quot;color: rgb(51, 51, 51); text-align: center; background-color: initial;&quot;&gt;esgata o modelo mais atual ou especificado pela variável de ambiente do container.&lt;/span&gt;&lt;/p&gt;" style="text;html=1;whiteSpace=wrap;overflow=hidden;rounded=0;" vertex="1" parent="1">
          <mxGeometry x="100" y="210.5" width="305" height="66" as="geometry" />
        </mxCell>
      </root>
    </mxGraphModel>
  </diagram>
</mxfile>
